# xmcd
#
# Track frame offsets:
#  150
#  14735
#  28542
#  47247
#  69167
#  83325
#  104603
#  119956
#  136399
#  154537
#  166572
#  178425
#
# Disc length: 2571 seconds
#
# Revision: 2
# Processed by: cddbd v1.5.2PL0 Copyright (c) Steve Scherf et al.
# Submitted via: Collectorz.com_Music_Collector 6.11
#
DISCID=9d0a090c
DTITLE=John Denver - Thank God I´m A Country Boy
DYEAR=1996
DGENRE=Country
TTITLE0=Take Me Home, Country Road
TTITLE1=Thank God I´m A Country Boy
TTITLE2=Rocky Mountain High
TTITLE3=Sunshine On My Shoulders
TTITLE4=Annie´s Song
TTITLE5=Back Home Again
TTITLE6=I´m Sorry
TTITLE7=Leaving On A Jetplane
TTITLE8=Windsong
TTITLE9=Perhaps Love
TTITLE10=Love Again
TTITLE11=Dreamland Express
EXTD=
EXTT0=
EXTT1=
EXTT2=
EXTT3=
EXTT4=
EXTT5=
EXTT6=
EXTT7=
EXTT8=
EXTT9=
EXTT10=
EXTT11=
PLAYORDER=
